<?xml version="1.0" encoding="UTF-8" standalone="no"?><svg xmlns="http://www.w3.org/2000/svg" xmlns:xlink="http://www.w3.org/1999/xlink" contentScriptType="application/ecmascript" contentStyleType="text/css" height="1032px" preserveAspectRatio="none" style="width:1127px;height:1032px;" version="1.1" viewBox="0 0 1127 1032" width="1127px" zoomAndPan="magnify"><defs><filter height="300%" id="f6exxdjine8uj" width="300%" x="-1" y="-1"><feGaussianBlur result="blurOut" stdDeviation="2.0"/><feColorMatrix in="blurOut" result="blurOut2" type="matrix" values="0 0 0 0 0 0 0 0 0 0 0 0 0 0 0 0 0 0 .4 0"/><feOffset dx="4.0" dy="4.0" in="blurOut2" result="blurOut3"/><feBlend in="SourceGraphic" in2="blurOut3" mode="normal"/></filter></defs><g><rect fill="#FFFFFF" filter="url(#f6exxdjine8uj)" height="841.0059" style="stroke:#A80036;stroke-width:1.0;" width="10" x="17" y="98.4883"/><rect fill="#FFFFFF" filter="url(#f6exxdjine8uj)" height="804.3848" style="stroke:#A80036;stroke-width:1.0;" width="10" x="206" y="135.1094"/><rect fill="#FFFFFF" filter="url(#f6exxdjine8uj)" height="775.0742" style="stroke:#A80036;stroke-width:1.0;" width="10" x="317" y="164.4199"/><rect fill="#FFFFFF" filter="url(#f6exxdjine8uj)" height="775.0742" style="stroke:#A80036;stroke-width:1.0;" width="10" x="437" y="164.4199"/><rect fill="#FFFFFF" filter="url(#f6exxdjine8uj)" height="775.0742" style="stroke:#A80036;stroke-width:1.0;" width="10" x="557.5" y="164.4199"/><rect fill="#FFFFFF" filter="url(#f6exxdjine8uj)" height="309.1055" style="stroke:#A80036;stroke-width:1.0;" width="10" x="744.5" y="630.3887"/><rect fill="#FFFFFF" filter="url(#f6exxdjine8uj)" height="624.5215" style="stroke:#A80036;stroke-width:1.0;" width="10" x="834.5" y="305.9727"/><rect fill="#FFFFFF" filter="url(#f6exxdjine8uj)" height="251.7949" style="stroke:#000000;stroke-width:2.0;" width="612" x="501" y="267.3516"/><rect fill="#FFFFFF" filter="url(#f6exxdjine8uj)" height="251.7949" style="stroke:#000000;stroke-width:2.0;" width="612" x="501" y="591.7676"/><line style="stroke:#A80036;stroke-width:1.0;stroke-dasharray:5.0,5.0;" x1="22" x2="22" y1="88.4883" y2="948.4941"/><line style="stroke:#A80036;stroke-width:1.0;stroke-dasharray:5.0,5.0;" x1="210.5" x2="210.5" y1="88.4883" y2="948.4941"/><line style="stroke:#A80036;stroke-width:1.0;stroke-dasharray:5.0,5.0;" x1="322" x2="322" y1="88.4883" y2="948.4941"/><line style="stroke:#A80036;stroke-width:1.0;stroke-dasharray:5.0,5.0;" x1="442" x2="442" y1="88.4883" y2="948.4941"/><line style="stroke:#A80036;stroke-width:1.0;stroke-dasharray:5.0,5.0;" x1="562" x2="562" y1="88.4883" y2="948.4941"/><line style="stroke:#A80036;stroke-width:1.0;stroke-dasharray:5.0,5.0;" x1="749.5" x2="749.5" y1="88.4883" y2="948.4941"/><line style="stroke:#A80036;stroke-width:1.0;stroke-dasharray:5.0,5.0;" x1="839.5" x2="839.5" y1="88.4883" y2="948.4941"/><line style="stroke:#A80036;stroke-width:1.0;stroke-dasharray:5.0,5.0;" x1="959" x2="959" y1="88.4883" y2="948.4941"/><line style="stroke:#A80036;stroke-width:1.0;stroke-dasharray:5.0,5.0;" x1="1058" x2="1058" y1="88.4883" y2="948.4941"/><text fill="#000000" font-family="sans-serif" font-size="14" lengthAdjust="spacing" textLength="28" x="5" y="85.5352">小川</text><ellipse cx="22" cy="15" fill="#FEFECE" filter="url(#f6exxdjine8uj)" rx="8" ry="8" style="stroke:#A80036;stroke-width:2.0;"/><path d="M22,23 L22,50 M9,31 L35,31 M22,50 L9,65 M22,50 L35,65 " fill="none" filter="url(#f6exxdjine8uj)" style="stroke:#A80036;stroke-width:2.0;"/><text fill="#000000" font-family="sans-serif" font-size="14" lengthAdjust="spacing" textLength="28" x="5" y="961.0293">小川</text><ellipse cx="22" cy="973.9824" fill="#FEFECE" filter="url(#f6exxdjine8uj)" rx="8" ry="8" style="stroke:#A80036;stroke-width:2.0;"/><path d="M22,981.9824 L22,1008.9824 M9,989.9824 L35,989.9824 M22,1008.9824 L9,1023.9824 M22,1008.9824 L35,1023.9824 " fill="none" filter="url(#f6exxdjine8uj)" style="stroke:#A80036;stroke-width:2.0;"/><rect fill="#FEFECE" filter="url(#f6exxdjine8uj)" height="30.4883" style="stroke:#A80036;stroke-width:1.5;" width="49" x="184.5" y="53"/><text fill="#000000" font-family="sans-serif" font-size="14" lengthAdjust="spacing" textLength="35" x="191.5" y="73.5352">stern</text><rect fill="#FEFECE" filter="url(#f6exxdjine8uj)" height="30.4883" style="stroke:#A80036;stroke-width:1.5;" width="49" x="184.5" y="947.4941"/><text fill="#000000" font-family="sans-serif" font-size="14" lengthAdjust="spacing" textLength="35" x="191.5" y="968.0293">stern</text><rect fill="#FEFECE" filter="url(#f6exxdjine8uj)" height="30.4883" style="stroke:#A80036;stroke-width:1.5;" width="98" x="271" y="53"/><text fill="#000000" font-family="sans-serif" font-size="14" lengthAdjust="spacing" textLength="84" x="278" y="73.5352">Pod watcher</text><rect fill="#FEFECE" filter="url(#f6exxdjine8uj)" height="30.4883" style="stroke:#A80036;stroke-width:1.5;" width="98" x="271" y="947.4941"/><text fill="#000000" font-family="sans-serif" font-size="14" lengthAdjust="spacing" textLength="84" x="278" y="968.0293">Pod watcher</text><rect fill="#FEFECE" filter="url(#f6exxdjine8uj)" height="30.4883" style="stroke:#A80036;stroke-width:1.5;" width="114" x="383" y="53"/><text fill="#000000" font-family="sans-serif" font-size="14" lengthAdjust="spacing" textLength="100" x="390" y="73.5352">Delete handler</text><rect fill="#FEFECE" filter="url(#f6exxdjine8uj)" height="30.4883" style="stroke:#A80036;stroke-width:1.5;" width="114" x="383" y="947.4941"/><text fill="#000000" font-family="sans-serif" font-size="14" lengthAdjust="spacing" textLength="100" x="390" y="968.0293">Delete handler</text><rect fill="#FEFECE" filter="url(#f6exxdjine8uj)" height="30.4883" style="stroke:#A80036;stroke-width:1.5;" width="99" x="511" y="53"/><text fill="#000000" font-family="sans-serif" font-size="14" lengthAdjust="spacing" textLength="85" x="518" y="73.5352">Add handler</text><rect fill="#FEFECE" filter="url(#f6exxdjine8uj)" height="30.4883" style="stroke:#A80036;stroke-width:1.5;" width="99" x="511" y="947.4941"/><text fill="#000000" font-family="sans-serif" font-size="14" lengthAdjust="spacing" textLength="85" x="518" y="968.0293">Add handler</text><rect fill="#FEFECE" filter="url(#f6exxdjine8uj)" height="30.4883" style="stroke:#A80036;stroke-width:1.5;" width="76" x="709.5" y="53"/><text fill="#000000" font-family="sans-serif" font-size="14" lengthAdjust="spacing" textLength="62" x="716.5" y="73.5352">G for abc</text><rect fill="#FEFECE" filter="url(#f6exxdjine8uj)" height="30.4883" style="stroke:#A80036;stroke-width:1.5;" width="76" x="709.5" y="947.4941"/><text fill="#000000" font-family="sans-serif" font-size="14" lengthAdjust="spacing" textLength="62" x="716.5" y="968.0293">G for abc</text><rect fill="#FEFECE" filter="url(#f6exxdjine8uj)" height="30.4883" style="stroke:#A80036;stroke-width:1.5;" width="76" x="799.5" y="53"/><text fill="#000000" font-family="sans-serif" font-size="14" lengthAdjust="spacing" textLength="62" x="806.5" y="73.5352">G for xyz</text><rect fill="#FEFECE" filter="url(#f6exxdjine8uj)" height="30.4883" style="stroke:#A80036;stroke-width:1.5;" width="76" x="799.5" y="947.4941"/><text fill="#000000" font-family="sans-serif" font-size="14" lengthAdjust="spacing" textLength="62" x="806.5" y="968.0293">G for xyz</text><rect fill="#FEFECE" filter="url(#f6exxdjine8uj)" height="30.4883" style="stroke:#A80036;stroke-width:1.5;" width="83" x="916" y="53"/><text fill="#000000" font-family="sans-serif" font-size="14" lengthAdjust="spacing" textLength="69" x="923" y="73.5352">API Server</text><rect fill="#FEFECE" filter="url(#f6exxdjine8uj)" height="30.4883" style="stroke:#A80036;stroke-width:1.5;" width="83" x="916" y="947.4941"/><text fill="#000000" font-family="sans-serif" font-size="14" lengthAdjust="spacing" textLength="69" x="923" y="968.0293">API Server</text><rect fill="#FEFECE" filter="url(#f6exxdjine8uj)" height="30.4883" style="stroke:#A80036;stroke-width:1.5;" width="86" x="1013" y="53"/><text fill="#000000" font-family="sans-serif" font-size="14" lengthAdjust="spacing" textLength="72" x="1020" y="73.5352">log output</text><rect fill="#FEFECE" filter="url(#f6exxdjine8uj)" height="30.4883" style="stroke:#A80036;stroke-width:1.5;" width="86" x="1013" y="947.4941"/><text fill="#000000" font-family="sans-serif" font-size="14" lengthAdjust="spacing" textLength="72" x="1020" y="968.0293">log output</text><rect fill="#FFFFFF" filter="url(#f6exxdjine8uj)" height="841.0059" style="stroke:#A80036;stroke-width:1.0;" width="10" x="17" y="98.4883"/><rect fill="#FFFFFF" filter="url(#f6exxdjine8uj)" height="804.3848" style="stroke:#A80036;stroke-width:1.0;" width="10" x="206" y="135.1094"/><rect fill="#FFFFFF" filter="url(#f6exxdjine8uj)" height="775.0742" style="stroke:#A80036;stroke-width:1.0;" width="10" x="317" y="164.4199"/><rect fill="#FFFFFF" filter="url(#f6exxdjine8uj)" height="775.0742" style="stroke:#A80036;stroke-width:1.0;" width="10" x="437" y="164.4199"/><rect fill="#FFFFFF" filter="url(#f6exxdjine8uj)" height="775.0742" style="stroke:#A80036;stroke-width:1.0;" width="10" x="557.5" y="164.4199"/><rect fill="#FFFFFF" filter="url(#f6exxdjine8uj)" height="309.1055" style="stroke:#A80036;stroke-width:1.0;" width="10" x="744.5" y="630.3887"/><rect fill="#FFFFFF" filter="url(#f6exxdjine8uj)" height="624.5215" style="stroke:#A80036;stroke-width:1.0;" width="10" x="834.5" y="305.9727"/><polygon fill="#A80036" points="194,131.1094,204,135.1094,194,139.1094,198,135.1094" style="stroke:#A80036;stroke-width:1.0;"/><line style="stroke:#A80036;stroke-width:1.0;" x1="27" x2="200" y1="135.1094" y2="135.1094"/><text fill="#000000" font-family="sans-serif" font-size="13" lengthAdjust="spacing" textLength="160" x="34" y="115.0566">stern frontend --selector</text><text fill="#000000" font-family="sans-serif" font-size="13" lengthAdjust="spacing" textLength="95" x="34" y="130.3672">release=canary</text><polygon fill="#A80036" points="305,160.4199,315,164.4199,305,168.4199,309,164.4199" style="stroke:#A80036;stroke-width:1.0;"/><line style="stroke:#A80036;stroke-width:1.0;" x1="216" x2="311" y1="164.4199" y2="164.4199"/><text fill="#000000" font-family="sans-serif" font-size="13" lengthAdjust="spacing" textLength="82" x="223" y="159.6777">start watcher</text><polygon fill="#A80036" points="947.5,189.7305,957.5,193.7305,947.5,197.7305,951.5,193.7305" style="stroke:#A80036;stroke-width:1.0;"/><line style="stroke:#A80036;stroke-width:1.0;" x1="327" x2="953.5" y1="193.7305" y2="193.7305"/><text fill="#000000" font-family="sans-serif" font-size="13" lengthAdjust="spacing" textLength="70" x="334" y="188.9883">start watch</text><polygon fill="#A80036" points="338,219.041,328,223.041,338,227.041,334,223.041" style="stroke:#A80036;stroke-width:1.0;"/><line style="stroke:#A80036;stroke-width:1.0;" x1="332" x2="958.5" y1="223.041" y2="223.041"/><text fill="#000000" font-family="sans-serif" font-size="13" lengthAdjust="spacing" textLength="79" x="344" y="218.2988">new xyz pod</text><polygon fill="#A80036" points="545.5,248.3516,555.5,252.3516,545.5,256.3516,549.5,252.3516" style="stroke:#A80036;stroke-width:1.0;"/><line style="stroke:#A80036;stroke-width:1.0;" x1="327" x2="551.5" y1="252.3516" y2="252.3516"/><text fill="#000000" font-family="sans-serif" font-size="13" lengthAdjust="spacing" textLength="79" x="334" y="247.6094">new xyz pod</text><path d="M501,267.3516 L699,267.3516 L699,274.3516 L689,284.3516 L501,284.3516 L501,267.3516 " fill="#EEEEEE" style="stroke:#000000;stroke-width:1.0;"/><rect fill="none" height="251.7949" style="stroke:#000000;stroke-width:2.0;" width="612" x="501" y="267.3516"/><text fill="#000000" font-family="sans-serif" font-size="13" font-weight="bold" lengthAdjust="spacing" textLength="153" x="516" y="280.9199">log stream for xyz pod</text><polygon fill="#A80036" points="822.5,301.9727,832.5,305.9727,822.5,309.9727,826.5,305.9727" style="stroke:#A80036;stroke-width:1.0;"/><line style="stroke:#A80036;stroke-width:1.0;" x1="567.5" x2="828.5" y1="305.9727" y2="305.9727"/><text fill="#000000" font-family="sans-serif" font-size="13" lengthAdjust="spacing" textLength="158" x="574.5" y="301.2305">new gorutine for abc pod</text><polygon fill="#A80036" points="947.5,331.2832,957.5,335.2832,947.5,339.2832,951.5,335.2832" style="stroke:#A80036;stroke-width:1.0;"/><line style="stroke:#A80036;stroke-width:1.0;" x1="844.5" x2="953.5" y1="335.2832" y2="335.2832"/><text fill="#000000" font-family="sans-serif" font-size="13" lengthAdjust="spacing" textLength="91" x="851.5" y="330.541">log stream req</text><polygon fill="#A80036" points="855.5,360.5938,845.5,364.5938,855.5,368.5938,851.5,364.5938" style="stroke:#A80036;stroke-width:1.0;"/><line style="stroke:#A80036;stroke-width:1.0;stroke-dasharray:2.0,2.0;" x1="849.5" x2="958.5" y1="364.5938" y2="364.5938"/><text fill="#000000" font-family="sans-serif" font-size="13" lengthAdjust="spacing" textLength="84" x="861.5" y="359.8516">log content...</text><polygon fill="#A80036" points="1046,389.9043,1056,393.9043,1046,397.9043,1050,393.9043" style="stroke:#A80036;stroke-width:1.0;"/><line style="stroke:#A80036;stroke-width:1.0;stroke-dasharray:2.0,2.0;" x1="844.5" x2="1052" y1="393.9043" y2="393.9043"/><text fill="#000000" font-family="sans-serif" font-size="13" lengthAdjust="spacing" textLength="84" x="851.5" y="389.1621">log content...</text><polygon fill="#A80036" points="855.5,419.2148,845.5,423.2148,855.5,427.2148,851.5,423.2148" style="stroke:#A80036;stroke-width:1.0;"/><line style="stroke:#A80036;stroke-width:1.0;stroke-dasharray:2.0,2.0;" x1="849.5" x2="958.5" y1="423.2148" y2="423.2148"/><text fill="#000000" font-family="sans-serif" font-size="13" lengthAdjust="spacing" textLength="84" x="861.5" y="418.4727">log content...</text><polygon fill="#A80036" points="1046,448.5254,1056,452.5254,1046,456.5254,1050,452.5254" style="stroke:#A80036;stroke-width:1.0;"/><line style="stroke:#A80036;stroke-width:1.0;stroke-dasharray:2.0,2.0;" x1="844.5" x2="1052" y1="452.5254" y2="452.5254"/><text fill="#000000" font-family="sans-serif" font-size="13" lengthAdjust="spacing" textLength="84" x="851.5" y="447.7832">log content...</text><polygon fill="#A80036" points="855.5,477.8359,845.5,481.8359,855.5,485.8359,851.5,481.8359" style="stroke:#A80036;stroke-width:1.0;"/><line style="stroke:#A80036;stroke-width:1.0;stroke-dasharray:2.0,2.0;" x1="849.5" x2="958.5" y1="481.8359" y2="481.8359"/><text fill="#000000" font-family="sans-serif" font-size="13" lengthAdjust="spacing" textLength="84" x="861.5" y="477.0938">log content...</text><polygon fill="#A80036" points="1046,507.1465,1056,511.1465,1046,515.1465,1050,511.1465" style="stroke:#A80036;stroke-width:1.0;"/><line style="stroke:#A80036;stroke-width:1.0;stroke-dasharray:2.0,2.0;" x1="844.5" x2="1052" y1="511.1465" y2="511.1465"/><text fill="#000000" font-family="sans-serif" font-size="13" lengthAdjust="spacing" textLength="84" x="851.5" y="506.4043">log content...</text><polygon fill="#A80036" points="338,543.457,328,547.457,338,551.457,334,547.457" style="stroke:#A80036;stroke-width:1.0;"/><line style="stroke:#A80036;stroke-width:1.0;" x1="332" x2="958.5" y1="547.457" y2="547.457"/><text fill="#000000" font-family="sans-serif" font-size="13" lengthAdjust="spacing" textLength="79" x="344" y="542.7148">new abc pod</text><polygon fill="#A80036" points="545.5,572.7676,555.5,576.7676,545.5,580.7676,549.5,576.7676" style="stroke:#A80036;stroke-width:1.0;"/><line style="stroke:#A80036;stroke-width:1.0;" x1="327" x2="551.5" y1="576.7676" y2="576.7676"/><text fill="#000000" font-family="sans-serif" font-size="13" lengthAdjust="spacing" textLength="79" x="334" y="572.0254">new abc pod</text><path d="M501,591.7676 L699,591.7676 L699,598.7676 L689,608.7676 L501,608.7676 L501,591.7676 " fill="#EEEEEE" style="stroke:#000000;stroke-width:1.0;"/><rect fill="none" height="251.7949" style="stroke:#000000;stroke-width:2.0;" width="612" x="501" y="591.7676"/><text fill="#000000" font-family="sans-serif" font-size="13" font-weight="bold" lengthAdjust="spacing" textLength="153" x="516" y="605.3359">log stream for abc pod</text><polygon fill="#A80036" points="732.5,626.3887,742.5,630.3887,732.5,634.3887,736.5,630.3887" style="stroke:#A80036;stroke-width:1.0;"/><line style="stroke:#A80036;stroke-width:1.0;" x1="567.5" x2="738.5" y1="630.3887" y2="630.3887"/><text fill="#000000" font-family="sans-serif" font-size="13" lengthAdjust="spacing" textLength="158" x="574.5" y="625.6465">new gorutine for xyz pod</text><polygon fill="#A80036" points="947.5,655.6992,957.5,659.6992,947.5,663.6992,951.5,659.6992" style="stroke:#A80036;stroke-width:1.0;"/><line style="stroke:#A80036;stroke-width:1.0;" x1="754.5" x2="953.5" y1="659.6992" y2="659.6992"/><text fill="#000000" font-family="sans-serif" font-size="13" lengthAdjust="spacing" textLength="91" x="761.5" y="654.957">log stream req</text><polygon fill="#A80036" points="765.5,685.0098,755.5,689.0098,765.5,693.0098,761.5,689.0098" style="stroke:#A80036;stroke-width:1.0;"/><line style="stroke:#A80036;stroke-width:1.0;stroke-dasharray:2.0,2.0;" x1="759.5" x2="958.5" y1="689.0098" y2="689.0098"/><text fill="#000000" font-family="sans-serif" font-size="13" lengthAdjust="spacing" textLength="84" x="771.5" y="684.2676">log content...</text><polygon fill="#A80036" points="1046,714.3203,1056,718.3203,1046,722.3203,1050,718.3203" style="stroke:#A80036;stroke-width:1.0;"/><line style="stroke:#A80036;stroke-width:1.0;stroke-dasharray:2.0,2.0;" x1="754.5" x2="1052" y1="718.3203" y2="718.3203"/><text fill="#000000" font-family="sans-serif" font-size="13" lengthAdjust="spacing" textLength="84" x="761.5" y="713.5781">log content...</text><polygon fill="#A80036" points="765.5,743.6309,755.5,747.6309,765.5,751.6309,761.5,747.6309" style="stroke:#A80036;stroke-width:1.0;"/><line style="stroke:#A80036;stroke-width:1.0;stroke-dasharray:2.0,2.0;" x1="759.5" x2="958.5" y1="747.6309" y2="747.6309"/><text fill="#000000" font-family="sans-serif" font-size="13" lengthAdjust="spacing" textLength="84" x="771.5" y="742.8887">log content...</text><polygon fill="#A80036" points="1046,772.9414,1056,776.9414,1046,780.9414,1050,776.9414" style="stroke:#A80036;stroke-width:1.0;"/><line style="stroke:#A80036;stroke-width:1.0;stroke-dasharray:2.0,2.0;" x1="754.5" x2="1052" y1="776.9414" y2="776.9414"/><text fill="#000000" font-family="sans-serif" font-size="13" lengthAdjust="spacing" textLength="84" x="761.5" y="772.1992">log content...</text><polygon fill="#A80036" points="765.5,802.252,755.5,806.252,765.5,810.252,761.5,806.252" style="stroke:#A80036;stroke-width:1.0;"/><line style="stroke:#A80036;stroke-width:1.0;stroke-dasharray:2.0,2.0;" x1="759.5" x2="958.5" y1="806.252" y2="806.252"/><text fill="#000000" font-family="sans-serif" font-size="13" lengthAdjust="spacing" textLength="84" x="771.5" y="801.5098">log content...</text><polygon fill="#A80036" points="1046,831.5625,1056,835.5625,1046,839.5625,1050,835.5625" style="stroke:#A80036;stroke-width:1.0;"/><line style="stroke:#A80036;stroke-width:1.0;stroke-dasharray:2.0,2.0;" x1="754.5" x2="1052" y1="835.5625" y2="835.5625"/><text fill="#000000" font-family="sans-serif" font-size="13" lengthAdjust="spacing" textLength="84" x="761.5" y="830.8203">log content...</text><polygon fill="#A80036" points="338,867.873,328,871.873,338,875.873,334,871.873" style="stroke:#A80036;stroke-width:1.0;"/><line style="stroke:#A80036;stroke-width:1.0;" x1="332" x2="958.5" y1="871.873" y2="871.873"/><text fill="#000000" font-family="sans-serif" font-size="13" lengthAdjust="spacing" textLength="72" x="344" y="867.1309">del xyz Pod</text><polygon fill="#A80036" points="425,897.1836,435,901.1836,425,905.1836,429,901.1836" style="stroke:#A80036;stroke-width:1.0;"/><line style="stroke:#A80036;stroke-width:1.0;" x1="327" x2="431" y1="901.1836" y2="901.1836"/><text fill="#000000" font-family="sans-serif" font-size="13" lengthAdjust="spacing" textLength="72" x="334" y="896.4414">del xyz Pod</text><line style="stroke:#A80036;stroke-width:2.0;" x1="821.5" x2="831.5" y1="925.4941" y2="935.4941"/><line style="stroke:#A80036;stroke-width:2.0;" x1="821.5" x2="831.5" y1="935.4941" y2="925.4941"/><line style="stroke:#A80036;stroke-width:1.0;" x1="447" x2="826.5" y1="930.4941" y2="930.4941"/><text fill="#000000" font-family="sans-serif" font-size="13" lengthAdjust="spacing" textLength="157" x="454" y="925.752">termiate gorutine for xyz</text><!--MD5=[02fde340f98c860941bffc108abd01e4]
@startuml
autoactivate off

actor "小川" as User
participant stern
participant "Pod watcher" as watcher
participant "Delete handler" as delHandler
participant "Add handler" as addHandler
participant "G for abc" as abcTailer
participant "G for xyz" as xyzTailer
participant "API Server" as apiServer
participant "log output" as output

activate User
User -> stern : stern frontend - -selector\nrelease=canary
activate stern

stern -> watcher : start watcher
activate watcher
activate addHandler
activate delHandler
watcher -> apiServer: start watch
apiServer -> watcher: new xyz pod
watcher -> addHandler: new xyz pod
    group log stream for xyz pod
        addHandler -> xyzTailer: new gorutine for abc pod
        activate xyzTailer
        xyzTailer -> apiServer: log stream req
        apiServer - -> xyzTailer: log content...
        xyzTailer - -> output: log content...
        apiServer - -> xyzTailer: log content...
        xyzTailer - -> output: log content...
        apiServer - -> xyzTailer: log content...
        xyzTailer - -> output: log content...
    end


apiServer -> watcher: new abc pod
watcher -> addHandler: new abc pod
    group log stream for abc pod
        addHandler -> abcTailer: new gorutine for xyz pod
        activate abcTailer
        abcTailer -> apiServer: log stream req
        apiServer - -> abcTailer: log content...
        abcTailer - -> output: log content...
        apiServer - -> abcTailer: log content...
        abcTailer - -> output: log content...
        apiServer - -> abcTailer: log content...
        abcTailer - -> output: log content...
    end
apiServer -> watcher: del xyz Pod
watcher -> delHandler: del xyz Pod
delHandler ->x xyzTailer: termiate gorutine for xyz
deactivate xyzTailer
@enduml

PlantUML version 1.2021.5(Sun Apr 25 19:20:28 CST 2021)
(GPL source distribution)
Java Runtime: OpenJDK Runtime Environment
JVM: Dynamic Code Evolution 64-Bit Server VM
Default Encoding: UTF-8
Language: en
Country: CN
--></g></svg>